<?xml version="1.0" standalone="no"?>
<!DOCTYPE svg PUBLIC "-//W3C//DTD SVG 20010904//EN"
 "http://www.w3.org/TR/2001/REC-SVG-20010904/DTD/svg10.dtd">
<svg version="1.0" xmlns="http://www.w3.org/2000/svg"
 width="512.000000pt" height="512.000000pt" viewBox="0 0 512.000000 512.000000"
 preserveAspectRatio="xMidYMid meet">
<metadata>
Created by potrace 1.14, written by Peter Selinger 2001-2017
</metadata>
<g transform="translate(0.000000,512.000000) scale(0.100000,-0.100000)"
fill="#000000" stroke="none">
<path d="M3791 5102 c-37 -17 -33 -12 -690 -902 -192 -261 -420 -569 -506
-685 -85 -115 -197 -267 -247 -337 -51 -70 -96 -127 -99 -128 -4 0 -68 82
-143 183 -74 100 -139 187 -143 192 -24 31 -821 1099 -967 1295 -59 80 -114
153 -121 162 -8 10 -42 55 -76 101 -74 102 -119 132 -186 124 -79 -9 -134 -70
-135 -149 -1 -35 17 -76 89 -218 50 -96 150 -292 222 -435 141 -277 169 -317
219 -309 28 5 32 1 66 -63 37 -69 44 -93 26 -93 -5 0 -14 -17 -21 -39 -11 -39
-11 -40 141 -337 302 -590 374 -732 460 -900 l88 -171 -47 -64 c-86 -116 -245
-331 -391 -529 -79 -107 -175 -237 -213 -288 l-69 -94 -47 9 c-83 15 -240 7
-316 -16 -229 -69 -404 -255 -461 -489 -18 -77 -16 -236 5 -313 34 -124 107
-247 196 -328 57 -51 156 -108 242 -138 69 -24 92 -27 198 -26 66 0 129 3 140
5 156 33 305 127 399 252 157 208 175 524 42 734 l-24 39 55 64 c30 35 79 91
108 124 28 33 83 96 121 140 38 44 71 82 74 85 3 3 93 106 200 230 107 124
197 227 200 230 3 3 19 22 37 42 l32 38 153 -173 c84 -95 178 -202 208 -237
30 -35 64 -73 75 -85 11 -11 49 -54 85 -95 35 -41 67 -77 70 -80 3 -3 20 -23
39 -45 19 -22 62 -71 97 -110 34 -38 72 -82 83 -97 l21 -27 -35 -68 c-205
-400 35 -879 481 -957 117 -21 266 -3 369 44 56 25 60 25 98 -4 78 -59 252
-125 377 -141 30 -4 66 -9 80 -12 66 -10 258 -12 290 -2 204 65 228 356 37
448 -41 20 -65 25 -182 36 -33 3 -80 8 -105 11 -64 7 -205 35 -218 43 -8 5 -6
21 5 56 12 36 16 87 17 180 0 116 -3 138 -27 203 -38 106 -80 174 -156 252
-104 107 -188 154 -341 189 -114 27 -268 16 -364 -24 -29 -13 -31 -12 -79 52
-49 64 -49 64 -33 97 15 33 15 68 -2 90 -5 6 -130 173 -277 371 -147 198 -271
365 -276 371 -5 6 27 80 80 185 48 96 244 485 436 864 191 380 440 871 551
1093 136 268 204 414 204 434 0 45 -35 111 -69 131 -43 25 -109 29 -150 9z
m-99 -4132 c86 -24 145 -114 136 -210 -19 -192 -281 -241 -367 -67 -78 157 60
322 231 277z m-2737 -19 c79 -35 122 -115 112 -203 -12 -100 -95 -170 -199
-170 -151 2 -244 176 -159 302 55 82 157 112 246 71z"/>
</g>
</svg>
